<mxfile host="Electron" modified="2022-05-02T00:13:36.112Z" agent="5.0 (X11; Linux x86_64) AppleWebKit/537.36 (KHTML, like Gecko) draw.io/15.4.0 Chrome/91.0.4472.164 Electron/13.5.0 Safari/537.36" etag="TY0IMQliGVcsmJfufjnb" compressed="false" version="15.4.0" type="device">
  <diagram id="wIS1uluJV4S37uy1-7b5" name="Page-1">
    <mxGraphModel dx="1102" dy="851" grid="1" gridSize="10" guides="1" tooltips="1" connect="1" arrows="1" fold="1" page="1" pageScale="1" pageWidth="850" pageHeight="1100" math="0" shadow="0">
      <root>
        <mxCell id="0" />
        <mxCell id="1" parent="0" />
        <mxCell id="7T345tW9L2BJDwXRf8Jp-4" value="close" style="edgeStyle=orthogonalEdgeStyle;rounded=0;orthogonalLoop=1;jettySize=auto;html=1;exitX=0.5;exitY=1;exitDx=0;exitDy=0;entryX=1;entryY=0.5;entryDx=0;entryDy=0;" parent="1" source="7T345tW9L2BJDwXRf8Jp-38" target="7T345tW9L2BJDwXRf8Jp-29" edge="1">
          <mxGeometry relative="1" as="geometry">
            <mxPoint x="660" y="920" as="targetPoint" />
          </mxGeometry>
        </mxCell>
        <mxCell id="7T345tW9L2BJDwXRf8Jp-2" value="showItemNutritionLabel" style="rounded=1;whiteSpace=wrap;html=1;" parent="1" vertex="1">
          <mxGeometry x="610" y="830" width="120" height="60" as="geometry" />
        </mxCell>
        <mxCell id="7T345tW9L2BJDwXRf8Jp-40" style="edgeStyle=orthogonalEdgeStyle;rounded=0;orthogonalLoop=1;jettySize=auto;html=1;exitX=0.5;exitY=0;exitDx=0;exitDy=0;entryX=1;entryY=0.4;entryDx=0;entryDy=0;entryPerimeter=0;" parent="1" source="7T345tW9L2BJDwXRf8Jp-3" target="7T345tW9L2BJDwXRf8Jp-19" edge="1">
          <mxGeometry relative="1" as="geometry" />
        </mxCell>
        <mxCell id="7T345tW9L2BJDwXRf8Jp-3" value="GoBackFromMenuList" style="rounded=1;whiteSpace=wrap;html=1;" parent="1" vertex="1">
          <mxGeometry x="490" y="710" width="120" height="60" as="geometry" />
        </mxCell>
        <mxCell id="7T345tW9L2BJDwXRf8Jp-12" style="edgeStyle=orthogonalEdgeStyle;rounded=0;orthogonalLoop=1;jettySize=auto;html=1;exitX=0.5;exitY=1;exitDx=0;exitDy=0;entryX=0.5;entryY=0;entryDx=0;entryDy=0;" parent="1" source="7T345tW9L2BJDwXRf8Jp-5" target="7T345tW9L2BJDwXRf8Jp-9" edge="1">
          <mxGeometry relative="1" as="geometry" />
        </mxCell>
        <mxCell id="7T345tW9L2BJDwXRf8Jp-5" value="&lt;div&gt;GET&lt;/div&gt;&lt;div&gt;&lt;span&gt;	&lt;/span&gt;https://www.rit.edu/fa/diningservices/netnutrition/1&lt;/div&gt;" style="ellipse;whiteSpace=wrap;html=1;aspect=fixed;" parent="1" vertex="1">
          <mxGeometry x="110" y="40" width="80" height="80" as="geometry" />
        </mxCell>
        <mxCell id="7T345tW9L2BJDwXRf8Jp-34" style="edgeStyle=orthogonalEdgeStyle;rounded=0;orthogonalLoop=1;jettySize=auto;html=1;exitX=1;exitY=0.5;exitDx=0;exitDy=0;entryX=1;entryY=0.5;entryDx=0;entryDy=0;" parent="1" source="7T345tW9L2BJDwXRf8Jp-6" target="7T345tW9L2BJDwXRf8Jp-29" edge="1">
          <mxGeometry relative="1" as="geometry" />
        </mxCell>
        <mxCell id="7T345tW9L2BJDwXRf8Jp-6" value="ToggleCourseItems" style="rounded=1;whiteSpace=wrap;html=1;" parent="1" vertex="1">
          <mxGeometry x="330" y="960" width="120" height="60" as="geometry" />
        </mxCell>
        <mxCell id="7T345tW9L2BJDwXRf8Jp-7" value="GoBackFromMenuList" style="rounded=1;whiteSpace=wrap;html=1;" parent="1" vertex="1">
          <mxGeometry x="315" y="350" width="120" height="60" as="geometry" />
        </mxCell>
        <mxCell id="7T345tW9L2BJDwXRf8Jp-8" value="SelectUnitfromUnitsList" style="rounded=1;whiteSpace=wrap;html=1;" parent="1" vertex="1">
          <mxGeometry x="90" y="480" width="120" height="60" as="geometry" />
        </mxCell>
        <mxCell id="7T345tW9L2BJDwXRf8Jp-9" value="UpdateNavBar" style="rounded=1;whiteSpace=wrap;html=1;" parent="1" vertex="1">
          <mxGeometry x="90" y="160" width="120" height="60" as="geometry" />
        </mxCell>
        <mxCell id="7T345tW9L2BJDwXRf8Jp-14" style="edgeStyle=orthogonalEdgeStyle;rounded=0;orthogonalLoop=1;jettySize=auto;html=1;exitX=0.5;exitY=1;exitDx=0;exitDy=0;entryX=0.5;entryY=0;entryDx=0;entryDy=0;" parent="1" source="7T345tW9L2BJDwXRf8Jp-10" target="7T345tW9L2BJDwXRf8Jp-13" edge="1">
          <mxGeometry relative="1" as="geometry" />
        </mxCell>
        <mxCell id="7T345tW9L2BJDwXRf8Jp-10" value="SetSessionFromLocalData" style="rounded=1;whiteSpace=wrap;html=1;" parent="1" vertex="1">
          <mxGeometry x="90" y="220" width="120" height="60" as="geometry" />
        </mxCell>
        <mxCell id="7T345tW9L2BJDwXRf8Jp-15" style="edgeStyle=orthogonalEdgeStyle;rounded=0;orthogonalLoop=1;jettySize=auto;html=1;exitX=0.5;exitY=1;exitDx=0;exitDy=0;entryX=0.5;entryY=0;entryDx=0;entryDy=0;" parent="1" source="7T345tW9L2BJDwXRf8Jp-13" target="7T345tW9L2BJDwXRf8Jp-8" edge="1">
          <mxGeometry relative="1" as="geometry" />
        </mxCell>
        <mxCell id="7T345tW9L2BJDwXRf8Jp-16" value="Selectt location" style="edgeLabel;html=1;align=center;verticalAlign=middle;resizable=0;points=[];" parent="7T345tW9L2BJDwXRf8Jp-15" vertex="1" connectable="0">
          <mxGeometry x="-0.2" y="1" relative="1" as="geometry">
            <mxPoint as="offset" />
          </mxGeometry>
        </mxCell>
        <mxCell id="7T345tW9L2BJDwXRf8Jp-13" value="Home (dining location list)" style="rounded=0;whiteSpace=wrap;html=1;" parent="1" vertex="1">
          <mxGeometry x="90" y="310" width="120" height="60" as="geometry" />
        </mxCell>
        <mxCell id="7T345tW9L2BJDwXRf8Jp-17" value="UpdateNavBar" style="rounded=1;whiteSpace=wrap;html=1;" parent="1" vertex="1">
          <mxGeometry x="90" y="540" width="120" height="60" as="geometry" />
        </mxCell>
        <mxCell id="7T345tW9L2BJDwXRf8Jp-20" style="edgeStyle=orthogonalEdgeStyle;rounded=0;orthogonalLoop=1;jettySize=auto;html=1;exitX=0.5;exitY=1;exitDx=0;exitDy=0;entryX=0.5;entryY=0;entryDx=0;entryDy=0;" parent="1" source="7T345tW9L2BJDwXRf8Jp-18" target="7T345tW9L2BJDwXRf8Jp-19" edge="1">
          <mxGeometry relative="1" as="geometry" />
        </mxCell>
        <mxCell id="7T345tW9L2BJDwXRf8Jp-18" value="UpdateNavBar" style="rounded=1;whiteSpace=wrap;html=1;" parent="1" vertex="1">
          <mxGeometry x="90" y="600" width="120" height="60" as="geometry" />
        </mxCell>
        <mxCell id="7T345tW9L2BJDwXRf8Jp-30" style="edgeStyle=orthogonalEdgeStyle;rounded=0;orthogonalLoop=1;jettySize=auto;html=1;exitX=1;exitY=0.75;exitDx=0;exitDy=0;entryX=0;entryY=0.5;entryDx=0;entryDy=0;" parent="1" source="7T345tW9L2BJDwXRf8Jp-19" target="7T345tW9L2BJDwXRf8Jp-23" edge="1">
          <mxGeometry relative="1" as="geometry" />
        </mxCell>
        <mxCell id="7T345tW9L2BJDwXRf8Jp-19" value="Menu list for &amp;lt;location&amp;gt;" style="rounded=0;whiteSpace=wrap;html=1;" parent="1" vertex="1">
          <mxGeometry x="90" y="710" width="120" height="60" as="geometry" />
        </mxCell>
        <mxCell id="7T345tW9L2BJDwXRf8Jp-22" style="edgeStyle=orthogonalEdgeStyle;rounded=0;orthogonalLoop=1;jettySize=auto;html=1;exitX=0.5;exitY=1;exitDx=0;exitDy=0;entryX=0.5;entryY=0;entryDx=0;entryDy=0;" parent="1" source="7T345tW9L2BJDwXRf8Jp-21" target="7T345tW9L2BJDwXRf8Jp-13" edge="1">
          <mxGeometry relative="1" as="geometry">
            <Array as="points">
              <mxPoint x="375" y="490" />
              <mxPoint x="470" y="490" />
              <mxPoint x="470" y="290" />
              <mxPoint x="150" y="290" />
            </Array>
          </mxGeometry>
        </mxCell>
        <mxCell id="7T345tW9L2BJDwXRf8Jp-21" value="UpdateNavBar" style="rounded=1;whiteSpace=wrap;html=1;" parent="1" vertex="1">
          <mxGeometry x="315" y="410" width="120" height="60" as="geometry" />
        </mxCell>
        <mxCell id="7T345tW9L2BJDwXRf8Jp-31" style="edgeStyle=orthogonalEdgeStyle;rounded=0;orthogonalLoop=1;jettySize=auto;html=1;exitX=0.5;exitY=1;exitDx=0;exitDy=0;entryX=0.5;entryY=0;entryDx=0;entryDy=0;" parent="1" source="7T345tW9L2BJDwXRf8Jp-23" target="7T345tW9L2BJDwXRf8Jp-29" edge="1">
          <mxGeometry relative="1" as="geometry" />
        </mxCell>
        <mxCell id="7T345tW9L2BJDwXRf8Jp-23" value="SelectMenu" style="rounded=1;whiteSpace=wrap;html=1;" parent="1" vertex="1">
          <mxGeometry x="315" y="740" width="120" height="60" as="geometry" />
        </mxCell>
        <mxCell id="7T345tW9L2BJDwXRf8Jp-32" style="edgeStyle=orthogonalEdgeStyle;rounded=0;orthogonalLoop=1;jettySize=auto;html=1;exitX=0.5;exitY=1;exitDx=0;exitDy=0;entryX=0.5;entryY=0;entryDx=0;entryDy=0;" parent="1" source="7T345tW9L2BJDwXRf8Jp-29" target="7T345tW9L2BJDwXRf8Jp-6" edge="1">
          <mxGeometry relative="1" as="geometry" />
        </mxCell>
        <mxCell id="7T345tW9L2BJDwXRf8Jp-33" value="dropdown a group" style="edgeLabel;html=1;align=center;verticalAlign=middle;resizable=0;points=[];" parent="7T345tW9L2BJDwXRf8Jp-32" vertex="1" connectable="0">
          <mxGeometry x="-0.2615" y="-5" relative="1" as="geometry">
            <mxPoint as="offset" />
          </mxGeometry>
        </mxCell>
        <mxCell id="7T345tW9L2BJDwXRf8Jp-35" style="edgeStyle=orthogonalEdgeStyle;rounded=0;orthogonalLoop=1;jettySize=auto;html=1;exitX=1;exitY=0.25;exitDx=0;exitDy=0;entryX=0;entryY=0.5;entryDx=0;entryDy=0;" parent="1" source="7T345tW9L2BJDwXRf8Jp-29" target="7T345tW9L2BJDwXRf8Jp-2" edge="1">
          <mxGeometry relative="1" as="geometry">
            <mxPoint x="580" y="815" as="targetPoint" />
          </mxGeometry>
        </mxCell>
        <mxCell id="7T345tW9L2BJDwXRf8Jp-36" value="click an item title" style="edgeLabel;html=1;align=center;verticalAlign=middle;resizable=0;points=[];" parent="7T345tW9L2BJDwXRf8Jp-35" vertex="1" connectable="0">
          <mxGeometry x="-0.275" y="-3" relative="1" as="geometry">
            <mxPoint as="offset" />
          </mxGeometry>
        </mxCell>
        <mxCell id="7T345tW9L2BJDwXRf8Jp-39" value="go back button" style="edgeStyle=orthogonalEdgeStyle;rounded=0;orthogonalLoop=1;jettySize=auto;html=1;exitX=0.75;exitY=0;exitDx=0;exitDy=0;entryX=0.5;entryY=1;entryDx=0;entryDy=0;" parent="1" source="7T345tW9L2BJDwXRf8Jp-29" target="7T345tW9L2BJDwXRf8Jp-3" edge="1">
          <mxGeometry relative="1" as="geometry" />
        </mxCell>
        <mxCell id="7T345tW9L2BJDwXRf8Jp-29" value="Menu items by group" style="rounded=0;whiteSpace=wrap;html=1;" parent="1" vertex="1">
          <mxGeometry x="315" y="840" width="120" height="60" as="geometry" />
        </mxCell>
        <mxCell id="7T345tW9L2BJDwXRf8Jp-38" value="See nutrition label popup" style="rounded=0;whiteSpace=wrap;html=1;" parent="1" vertex="1">
          <mxGeometry x="610" y="890" width="120" height="60" as="geometry" />
        </mxCell>
        <mxCell id="7T345tW9L2BJDwXRf8Jp-43" value="go back button" style="edgeStyle=orthogonalEdgeStyle;rounded=0;orthogonalLoop=1;jettySize=auto;html=1;entryX=0.5;entryY=0;entryDx=0;entryDy=0;exitX=1;exitY=0.25;exitDx=0;exitDy=0;" parent="1" source="7T345tW9L2BJDwXRf8Jp-19" target="7T345tW9L2BJDwXRf8Jp-7" edge="1">
          <mxGeometry relative="1" as="geometry">
            <mxPoint x="220" y="700" as="sourcePoint" />
            <mxPoint x="310" y="580" as="targetPoint" />
          </mxGeometry>
        </mxCell>
      </root>
    </mxGraphModel>
  </diagram>
</mxfile>
